<svg width="100" height="100" viewBox="0 0 100 100" fill="none" xmlns="http://www.w3.org/2000/svg">
<path d="M39.0953 45.1467C39.8853 44.8977 40.7277 45.3365 40.9768 46.1265L41.1387 46.6156C41.4747 47.582 41.8827 48.479 42.3587 49.2914L42.6024 49.6901L42.6776 49.8237C43.0187 50.5032 42.7967 51.3436 42.1414 51.7605C41.4424 52.205 40.5156 51.9986 40.071 51.2995C39.2486 50.0062 38.5994 48.5631 38.1155 47.0282C37.8665 46.2382 38.3052 45.3958 39.0953 45.1467ZM70.9364 26.9817C71.0738 26.2341 71.7581 25.6975 72.5321 25.7598C73.3578 25.8266 73.9734 26.5504 73.9067 27.3762L73.8747 27.7137C73.4934 31.2045 71.5891 34.5831 68.4729 36.4714L68.3372 36.5443C67.6505 36.8705 66.8146 36.6293 66.4121 35.9651C65.9831 35.2567 66.2095 34.3348 66.9178 33.9056L67.1307 33.7717C69.3063 32.3503 70.7 29.8139 70.9166 27.134L70.9364 26.9817ZM51.4685 28.7261C52.2415 28.4285 53.1092 28.8138 53.407 29.5867C53.8101 30.6331 54.4139 31.4447 55.1852 32.0005C56.3801 32.8615 57.5149 33.5085 58.5818 33.9753L59.0354 34.165L59.1752 34.2281C59.8499 34.5787 60.1622 35.391 59.8755 36.1128C59.5696 36.8825 58.6976 37.2587 57.9278 36.9529C56.473 36.375 54.9706 35.5439 53.4313 34.4348C52.1171 33.4878 51.1872 32.1681 50.6079 30.6646C50.3104 29.8916 50.6956 29.0239 51.4685 28.7261ZM38.8906 29.0783C39.1808 28.3025 40.0449 27.9089 40.8208 28.199C41.5966 28.4892 41.9902 29.3533 41.7001 30.1292C40.7411 32.6939 40.1912 35.4314 40.0515 38.1138L40.0352 38.2667C39.9192 39.0181 39.2511 39.5743 38.4755 39.5339C37.6482 39.4908 37.0122 38.7852 37.0553 37.9579C37.2104 34.9803 37.8205 31.94 38.8906 29.0783ZM58.6715 16.0325C58.7327 15.2582 59.371 14.6675 60.1312 14.6506L60.2845 14.6551L60.8284 14.7042C62.1043 14.8331 63.425 15.0634 64.7896 15.4028C66.5904 15.8507 68.1291 16.5592 69.4063 17.4732L69.6579 17.6588L69.7757 17.7576C70.332 18.2756 70.417 19.1411 69.9482 19.7601C69.4791 20.3792 68.6223 20.5319 67.9729 20.1362L67.8465 20.0495L67.4695 19.7798C66.5591 19.1647 65.435 18.6552 64.0655 18.3145C62.8319 18.0077 61.6525 17.8031 60.527 17.6894L60.048 17.6459L59.8957 17.6262C59.1478 17.49 58.6103 16.8067 58.6715 16.0325ZM53.3104 22.801C53.1047 23.603 52.2881 24.0868 51.4859 23.8816C50.6834 23.6761 50.1993 22.8588 50.4048 22.0563L53.3104 22.801ZM54.0786 14.5484C54.5802 13.8894 55.5204 13.7613 56.1796 14.2625C56.8389 14.7642 56.9666 15.7056 56.465 16.3648C54.913 18.4044 53.863 20.6427 53.3104 22.801L50.4048 22.0563C50.6653 21.0391 51.0171 20.0139 51.4598 18.9993C49.2538 19.9804 47.3622 21.4272 45.7854 23.2005C45.2349 23.8192 44.287 23.8742 43.6681 23.3238C43.0492 22.7734 42.9935 21.8259 43.5438 21.2068C45.5812 18.9156 48.1101 17.0493 51.1327 15.8871C51.7585 15.6466 52.4452 15.8537 52.8423 16.3513C53.2188 15.738 53.6316 15.1358 54.0786 14.5484ZM74.6471 7.22502C74.7335 6.4531 75.391 5.88325 76.1514 5.89117L76.3048 5.90089L77.287 6.02544C77.9478 6.11898 78.6196 6.23337 79.3021 6.3698L80.3335 6.59127L80.4813 6.633C81.2016 6.87635 81.6346 7.63024 81.4616 8.38737C81.2885 9.14453 80.571 9.63579 79.8165 9.54207L79.6655 9.51544L78.7138 9.31238C78.0859 9.18688 77.4705 9.08122 76.8672 8.9958L75.9709 8.88176L75.8189 8.85769C75.0759 8.69714 74.5609 7.99665 74.6471 7.22502ZM60.297 8.99178C62.5448 7.65094 65.1457 6.64333 68.0891 6.11597C68.9045 5.96989 69.6844 6.51188 69.8306 7.32722C69.9767 8.14267 69.4335 8.92209 68.6181 9.06818C66.0312 9.53164 63.7722 10.4123 61.8343 11.5682C61.1228 11.9926 60.2018 11.7601 59.7774 11.0487C59.3532 10.3373 59.5858 9.41621 60.297 8.99178Z" fill="#0088FF"/>
<path d="M58.7402 41.8789C61.8448 41.8789 64.4437 44.0377 65.1221 46.9355H71.1641C76.2286 46.9356 80.3652 50.8985 80.6465 55.8926C86.329 56.5231 90.2732 62.1094 88.751 67.792L81.4072 95.2051C80.763 97.6097 78.5841 99.2822 76.0947 99.2822L9 99.2812C8.17158 99.2812 7.5 98.6097 7.5 97.7812V51.3789C7.50003 46.1322 11.7533 41.8789 17 41.8789H58.7402ZM25.9746 58.834C23.0327 58.8341 20.4576 60.8097 19.6963 63.6514L10.9551 96.2812L76.0947 96.2822C77.2262 96.2822 78.217 95.5217 78.5098 94.4287L85.8535 67.0156C86.9592 62.8877 83.8486 58.8343 79.5752 58.834H25.9746ZM10.5 86.3848L16.7988 62.875C17.9116 58.7218 21.6749 55.8341 25.9746 55.834H77.6357C77.3323 52.5261 74.5511 49.9356 71.1641 49.9355H63.7969C63.7969 49.9355 63 50 62.5 48.5C62 47 60.7042 44.8789 58.7402 44.8789H17C13.4102 44.8789 10.5 47.7891 10.5 51.3789V86.3848Z" fill="#0088FF"/>
</svg>
